<?xml version="1.0" encoding="UTF-8"?>
<svg id="Layer_1" data-name="Layer 1" xmlns="http://www.w3.org/2000/svg" version="1.1" xmlns:xlink="http://www.w3.org/1999/xlink" viewBox="0 0 554.42 495.68">
  <defs>
    <style>
      .cls-1 {
        fill: url(#linear-gradient);
      }

      .cls-1, .cls-2, .cls-3, .cls-4, .cls-5, .cls-6, .cls-7, .cls-8 {
        stroke-width: 0px;
      }

      .cls-2 {
        fill: url(#linear-gradient-6);
      }

      .cls-3 {
        fill: url(#linear-gradient-5);
      }

      .cls-4 {
        fill: none;
      }

      .cls-5 {
        fill: url(#linear-gradient-2);
      }

      .cls-6 {
        fill: url(#linear-gradient-3);
      }

      .cls-7 {
        fill: #fff;
      }

      .cls-8 {
        fill: url(#linear-gradient-4);
      }
    </style>
    <linearGradient id="linear-gradient" x1="-32.98" y1="21.42" x2="155" y2="494.78" gradientUnits="userSpaceOnUse">
      <stop offset="0" stop-color="#72c6a3"/>
      <stop offset="1" stop-color="#002645"/>
    </linearGradient>
    <linearGradient id="linear-gradient-2" x1="135.36" y1="-45.43" x2="323.34" y2="427.93" xlink:href="#linear-gradient"/>
    <linearGradient id="linear-gradient-3" x1="203.29" y1="-72.4" x2="391.27" y2="400.96" xlink:href="#linear-gradient"/>
    <linearGradient id="linear-gradient-4" x1="323.57" y1="61.39" x2="455.16" y2="461.27" gradientUnits="userSpaceOnUse">
      <stop offset="0" stop-color="#092645"/>
      <stop offset="1" stop-color="#72c6a3"/>
    </linearGradient>
    <linearGradient id="linear-gradient-5" x1="281.66" y1="75.18" x2="413.24" y2="475.06" xlink:href="#linear-gradient-4"/>
    <linearGradient id="linear-gradient-6" x1="152.95" y1="117.53" x2="284.54" y2="517.41" xlink:href="#linear-gradient-4"/>
  </defs>
  <path class="cls-4" d="M124.38,141.52c-2.7,7.69-5.39,15.83-8.09,24.42-2.7,8.59-5.19,16.63-7.49,24.11-2.3,7.49-4.25,14.08-5.84,19.77-1.6,5.69-2.6,9.44-3,11.24-.4,2.2-1.15,5.49-2.25,9.88-1.1,4.4-2.05,8.19-2.85,11.38,22.36-7.59,44.49-13.88,66.36-18.87,2.05-.47,4.09-.9,6.14-1.33l-42.31-82.53c-.23.64-.45,1.28-.68,1.93Z"/>
  <path class="cls-1" d="M161.23,223.46c-21.87,4.99-43.99,11.29-66.36,18.87.8-3.19,1.75-6.99,2.85-11.38,1.1-4.39,1.85-7.68,2.25-9.88.4-1.8,1.39-5.54,3-11.24,1.59-5.69,3.54-12.28,5.84-19.77,2.29-7.49,4.79-15.53,7.49-24.11,2.7-8.58,5.39-16.73,8.09-24.42.23-.65.46-1.29.68-1.93l-33.6-65.55c-1.79,5.41-3.6,10.92-5.43,16.55-2.7,8.29-5.65,17.63-8.84,28.01-3.2,10.39-6.7,22.12-10.49,35.2-3.8,13.08-8.09,28.31-12.88,45.69l-12.28,44.34c-.4,1.4-.85,3.1-1.35,5.09-.5,2-1.1,4-1.8,5.99-.7,2-1.5,3.8-2.4,5.39-.9,1.6-1.75,2.7-2.54,3.3-7.59,4.99-13.68,10.09-18.28,15.28-4.6,5.2-6.89,12.19-6.89,20.97,0,5.6,1.2,10.29,3.59,14.08,2.4,3.8,4.79,7.39,7.19,10.78,0,4-.7,9.79-2.1,17.38-1.4,7.59-3,15.98-4.79,25.16-1.8,9.19-3.4,18.62-4.79,28.31-1.4,9.69-2.1,18.63-2.1,26.81,0,9.79,1.45,17.77,4.34,23.97,2.89,6.19,8.14,9.29,15.73,9.29h7.19c2.8,0,5.64-1.35,8.54-4.04,2.89-2.7,4.54-5.74,4.94-9.14l30.26-130.91c14.38-6.59,28.76-12.83,43.14-18.72,14.38-5.89,28.81-10.98,43.29-15.28,9.78-2.9,19.52-5.38,29.22-7.46l-24.57-47.94c-2.05.42-4.1.86-6.14,1.33Z"/>
  <path class="cls-5" d="M248.56,263.6h6.44c2.1,0,4.24.1,6.44.3,3.59-1.39,6.44-3.59,8.54-6.59,2.1-3,3.64-5.99,4.64-8.99,1-3,1.6-5.64,1.8-7.94.2-2.29.3-3.54.3-3.74,0-5.19-1.95-9.18-5.84-11.98-3.89-2.8-8.54-4.84-13.93-6.14-5.39-1.3-10.89-2.05-16.48-2.25-5.59-.2-10.09-.3-13.48-.3-6.09,0-12.17.2-18.25.58l24.37,47.55c5.15-.33,10.3-.5,15.45-.5Z"/>
  <path class="cls-6" d="M155.54,98.23c7.29-3.39,15.53-6.69,24.72-9.89,9.18-3.19,18.97-6.29,29.36-9.29,10.38-3,20.72-5.79,31.01-8.39,10.28-2.59,20.17-4.94,29.66-7.04,9.48-2.1,18.02-4.04,25.62-5.84,4.79-.8,9.83-1.65,15.13-2.55,5.29-.9,10.29-1.75,14.98-2.54,4.69-.8,8.84-1.54,12.43-2.25,3.59-.7,6.09-1.24,7.49-1.65,4.59-1.2,8.44-3,11.53-5.39,3.09-2.4,5.54-4.94,7.34-7.64,1.8-2.7,3.09-5.39,3.89-8.09.8-2.7,1.2-4.94,1.2-6.74,0-3.39-.8-6.14-2.4-8.24-1.6-2.1-3.75-3.69-6.44-4.79-2.7-1.09-5.95-1.84-9.74-2.25-3.8-.4-7.89-.6-12.28-.6-9.39,0-18.68.4-27.86,1.2-9.19.8-18.77,2.05-28.76,3.75-9.99,1.7-20.57,3.85-31.76,6.44-11.19,2.6-23.47,5.69-36.85,9.29-2.4.8-6.29,1.85-11.68,3.14-5.39,1.3-11.23,2.65-17.53,4.05-6.29,1.4-12.38,2.65-18.27,3.74-5.89,1.1-10.44,1.85-13.63,2.25l-2.7-6.59c-1-2.4-3.15-4.34-6.44-5.84-3.3-1.5-9.44-2.25-18.42-2.25-4,0-7.69,1.7-11.09,5.09-.28.28-.54.59-.82.88l36.39,71c1.85-1,3.81-1.99,5.92-2.97Z"/>
  <path class="cls-8" d="M549.99,364.9c-.6-2.59-1.55-4.89-2.85-6.89-1.3-1.99-3.1-3.59-5.39-4.79-2.3-1.2-5.05-1.8-8.24-1.8-1.8,0-3.74.35-5.84,1.05-2.1.7-4.54,1.55-7.34,2.55-16.17,6.79-28.86,12.09-38.05,15.88-9.19,3.8-16.53,6.84-22.02,9.14-5.49,2.3-10.09,4.25-13.78,5.84-3.7,1.6-8.14,3.5-13.33,5.69-9.79,4.19-20.52,8.64-32.21,13.33-11.68,4.7-23.42,8.99-35.2,12.88-11.79,3.9-23.17,7.19-34.15,9.89-4.68,1.15-9.09,2.04-13.26,2.7l25.53,49.81c2.57-.84,5.16-1.72,7.8-2.63,10.38-3.59,20.82-7.39,31.3-11.38,10.49-3.99,20.02-7.59,28.61-10.78,1.8-.6,4.94-1.75,9.44-3.45,4.49-1.69,9.63-3.64,15.43-5.84,5.79-2.19,11.98-4.54,18.58-7.04,6.59-2.49,12.98-4.94,19.17-7.34,6.19-2.4,11.93-4.59,17.23-6.59,5.29-1.99,9.53-3.59,12.73-4.79,2.59-.8,5.89-1.99,9.89-3.59,3.99-1.59,8.09-3.54,12.28-5.84,4.2-2.29,8.19-4.99,11.98-8.09,3.79-3.09,6.89-6.54,9.29-10.33.79-2.2,1.54-4.94,2.24-8.24.7-3.29,1.05-7.14,1.05-11.53,0-2.59-.3-5.19-.9-7.79Z"/>
  <path class="cls-3" d="M304.34,368.79l5.39-20.37c5.19-19.37,11.09-39.14,17.67-59.32,6.59-20.17,13.23-40.29,19.92-60.36,6.69-20.07,13.23-39.89,19.62-59.47,6.39-19.57,11.88-38.54,16.48-56.92.6-2.59,1.09-5.29,1.49-8.09.4-2.8.6-5.89.6-9.29,0-4.59-.5-9.14-1.5-13.63-1-4.49-2.54-8.54-4.65-12.13-2.1-3.59-4.84-6.49-8.24-8.69-3.4-2.2-7.49-3.3-12.28-3.3-7.99,0-15.03,2.8-21.12,8.39-6.1,5.6-10.34,13.08-12.73,22.47-.4,9.79-2.45,22.97-6.14,39.54-3.7,16.58-8.69,35.65-14.98,57.22-6.29,21.57-13.53,45.04-21.72,70.4-6.66,20.62-13.58,41.97-20.76,64.04l37.19,72.56c1.68-7.39,3.58-15.08,5.74-23.06Z"/>
  <path class="cls-2" d="M239.63,385.57c-1.2,3.4-2.3,7.29-3.29,11.68-1,4.39-1.9,8.89-2.7,13.48-.8,4.6-1.45,8.99-1.95,13.18-.5,4.19-.75,7.89-.75,11.09,0,6.39,1.09,12.39,3.29,17.97,2.2,5.59,5.89,9.99,11.09,13.18,5.79,3.59,10.43,6.89,13.93,9.88,3.49,3,6.93,5.54,10.33,7.64,3.39,2.1,7.24,3.75,11.53,4.94,4.29,1.2,10.23,1.8,17.82,1.8,1.79,0,3.73-.12,5.78-.33l-60.59-118.21-4.51,13.68Z"/>
  <path class="cls-7" d="M294.15,421.22c0,3.2.6,5.74,1.8,7.64,1.2,1.9,3.49,2.85,6.89,2.85,4.7,0,9.87-.46,15.5-1.35l-19.74-38.5c-.5,2.22-.99,4.43-1.45,6.6-2,9.39-3,16.98-3,22.77Z"/>
</svg>